<svg xmlns="http://www.w3.org/2000/svg" viewBox="0 0 108.29 99.99"><defs><style>.cls-1{fill:#231f20;opacity:0.3;}.cls-2{fill:#f395bf;stroke:#f295bf;stroke-miterlimit:10;stroke-width:0.73px;}</style></defs><title>Heart Logo</title><g id="Layer_2" data-name="Layer 2"><g id="Layer_1-2" data-name="Layer 1"><g id="Heart_Logo" data-name="Heart Logo"><path class="cls-1" d="M54.91,100a12.2,12.2,0,0,1-9.19-4.58C41.9,91.08,36.35,88,30.48,84.74c-7.62-4.22-16.26-9-22.46-17.5A43.33,43.33,0,0,1,0,41.78C0,18.74,16.59,0,37,0c6.89,0,12.29,2.43,17,4.92A34.14,34.14,0,0,1,70.64.63h.13A35.31,35.31,0,0,1,85.48,3.89c13.86,6.47,22.81,21.34,22.81,37.89,0,22.56-18.27,35.3-33,45.53-4.39,3.06-8.52,5.94-11.93,8.85A11.56,11.56,0,0,1,54.91,100Z"/><path class="cls-1" d="M54.91,95a7.28,7.28,0,0,1-5.44-2.89c-4.39-5-10.31-8.25-16.57-11.73-7.52-4.17-15.29-8.48-20.85-16.08A38.28,38.28,0,0,1,5,41.78C5,21.5,19.34,5,37,5c6.62,0,11.74,2.75,16.69,5.4l.56.3A28.43,28.43,0,0,1,70.64,5.63h.13a30.45,30.45,0,0,1,12.6,2.79c12.1,5.65,19.92,18.74,19.92,33.36,0,19.95-16.37,31.36-30.81,41.43-4.57,3.18-8.89,6.19-12.54,9.33a6.93,6.93,0,0,1-5,2.45Z"/><path class="cls-2" d="M70.75,10.63A23.2,23.2,0,0,0,56.28,15.4a3.18,3.18,0,0,1-1.65.86,2.84,2.84,0,0,1-1.48-.47C47.91,13,43.06,10,37,10c-15.2,0-27,14.54-27,31.78a33.59,33.59,0,0,0,6.09,19.56c9.3,12.72,26.64,15.56,37.13,27.45,1.31,1.49,1.91,1.65,3.22.16-1.36,0,.14-.12.22-.18,15.47-13.31,41.63-23.9,41.63-47,0-11.73-6.13-23.73-17-28.83A25.35,25.35,0,0,0,70.75,10.63ZM43.58,43a3.48,3.48,0,1,1,3.48-3.48A3.48,3.48,0,0,1,43.58,43Zm17.23,9.52c-4.44,0-8.85-2.3-9.25-5.3,0-.26.32-.48.77-.48,1.6,0,3.34.31,4.93.43a46.37,46.37,0,0,0,7.36,0c1.51-.12,3.15-.42,4.67-.42.45,0,.8.22.77.48C69.66,50.22,65.39,52.52,60.81,52.52ZM75.08,43a3.48,3.48,0,1,1,3.48-3.48A3.48,3.48,0,0,1,75.08,43Z"/></g></g></g></svg>