<?xml version="1.0" encoding="UTF-8"?>
<svg width="1440px" height="905px" viewBox="0 0 1440 905" version="1.1" xmlns="http://www.w3.org/2000/svg" xmlns:xlink="http://www.w3.org/1999/xlink">
    <!-- Generator: Sketch 59.1 (86144) - https://sketch.com -->
    <title>hero-bg</title>
    <desc>Created with Sketch.</desc>
    <g id="Page-1" stroke="none" stroke-width="1" fill="none" fill-rule="evenodd">
        <g id="1-landing">
            <g id="hero-bg">
                <path d="M0,0 C0,128.248758 0,192.373137 0,192.373137 C0,192.373137 90.928001,266.892492 272.784003,415.9312 L1013.24003,688.607052 L1212.99702,905 L1440,832.888318 L1440,445.426322 L1440,0 L0,0 Z" fill="#817F82"></path>
                <path d="M1098.49758,772.497902 C1095.24258,772.497902 1092.84258,774.762902 1092.84258,777.822902 C1092.84258,780.927902 1095.19758,783.237902 1098.39258,783.237902 C1099.98258,783.237902 1101.70758,782.442902 1102.84758,781.212902 L1101.04758,779.292902 C1100.32758,780.027902 1099.35258,780.507902 1098.54258,780.507902 C1097.11758,780.507902 1096.03758,779.337902 1096.03758,777.792902 C1096.03758,776.247902 1097.11758,775.092902 1098.54258,775.092902 C1099.41258,775.092902 1100.38758,775.647902 1101.04758,776.487902 L1102.84758,774.357902 C1101.78258,773.217902 1100.08758,772.497902 1098.49758,772.497902 Z M1111.91258,780.492902 L1111.91258,772.587902 L1108.79258,772.587902 L1108.79258,783.102902 L1116.32258,783.102902 L1116.32258,780.492902 L1111.91258,780.492902 Z M1125.52258,783.102902 L1125.52258,772.587902 L1122.40258,772.587902 L1122.40258,783.102902 L1125.52258,783.102902 Z M1137.34758,772.497902 C1134.09258,772.497902 1131.69258,774.762902 1131.69258,777.822902 C1131.69258,780.927902 1134.04758,783.237902 1137.24258,783.237902 C1138.83258,783.237902 1140.55758,782.442902 1141.69758,781.212902 L1139.89758,779.292902 C1139.17758,780.027902 1138.20258,780.507902 1137.39258,780.507902 C1135.96758,780.507902 1134.88758,779.337902 1134.88758,777.792902 C1134.88758,776.247902 1135.96758,775.092902 1137.39258,775.092902 C1138.26258,775.092902 1139.23758,775.647902 1139.89758,776.487902 L1141.69758,774.357902 C1140.63258,773.217902 1138.93758,772.497902 1137.34758,772.497902 Z M1154.39258,783.102902 L1158.12758,783.102902 L1154.07758,776.862902 L1157.88758,772.587902 L1154.28758,772.587902 L1150.76258,776.637902 L1150.76258,772.587902 L1147.64258,772.587902 L1147.64258,783.102902 L1150.76258,783.102902 L1150.76258,780.582902 L1151.94758,779.262902 L1154.39258,783.102902 Z M1180.78758,775.077902 L1180.92718,771.920575 L1171.54758,772.587902 L1171.54758,775.077902 L1174.59258,775.077902 L1174.59258,783.102902 L1177.72758,783.102902 L1177.72758,775.077902 L1180.78758,775.077902 Z M1191.39758,772.497902 C1188.09758,772.497902 1185.66758,774.747902 1185.66758,777.837902 C1185.66758,780.942902 1188.09758,783.237902 1191.39758,783.237902 C1194.69758,783.237902 1197.12758,780.927902 1197.12758,777.837902 C1197.12758,774.762902 1194.69758,772.497902 1191.39758,772.497902 Z M1191.44258,775.107902 C1192.82258,775.107902 1193.93258,776.262902 1193.93258,777.852902 C1193.93258,779.442902 1192.82258,780.627902 1191.44258,780.627902 C1190.06258,780.627902 1188.86258,779.442902 1188.86258,777.852902 C1188.86258,776.262902 1190.04758,775.107902 1191.44258,775.107902 Z M1067.77758,796.587902 L1067.77758,807.102902 L1070.89758,807.102902 L1070.89758,804.267902 L1072.54758,804.267902 C1075.26258,804.267902 1076.82258,802.827902 1076.82258,800.322902 C1076.82258,797.937902 1075.26258,796.587902 1072.54758,796.587902 L1067.77758,796.587902 Z M1070.89758,798.987902 L1072.39758,798.987902 C1073.32758,798.987902 1073.86758,799.497902 1073.86758,800.412902 C1073.86758,801.357902 1073.32758,801.867902 1072.39758,801.867902 L1070.89758,801.867902 L1070.89758,798.987902 Z M1086.14258,807.102902 L1086.14258,796.587902 L1083.02258,796.587902 L1083.02258,807.102902 L1086.14258,807.102902 Z M1097.96758,796.497902 C1094.71258,796.497902 1092.31258,798.762902 1092.31258,801.822902 C1092.31258,804.927902 1094.66758,807.237902 1097.86258,807.237902 C1099.45258,807.237902 1101.17758,806.442902 1102.31758,805.212902 L1100.51758,803.292902 C1099.79758,804.027902 1098.82258,804.507902 1098.01258,804.507902 C1096.58758,804.507902 1095.50758,803.337902 1095.50758,801.792902 C1095.50758,800.247902 1096.58758,799.092902 1098.01258,799.092902 C1098.88258,799.092902 1099.85758,799.647902 1100.51758,800.487902 L1102.31758,798.357902 C1101.25258,797.217902 1099.55758,796.497902 1097.96758,796.497902 Z M1115.01258,807.102902 L1118.74758,807.102902 L1114.69758,800.862902 L1118.50758,796.587902 L1114.90758,796.587902 L1111.38258,800.637902 L1111.38258,796.587902 L1108.26258,796.587902 L1108.26258,807.102902 L1111.38258,807.102902 L1111.38258,804.582902 L1112.56758,803.262902 L1115.01258,807.102902 Z M1140.04258,805.422902 L1140.65758,807.102902 L1143.98758,807.102902 L1139.65258,796.587902 L1136.44258,796.587902 L1131.95758,807.102902 L1135.16758,807.102902 L1135.79758,805.422902 L1140.04258,805.422902 Z M1139.21758,803.142902 L1136.66758,803.142902 L1137.95758,799.707902 L1139.21758,803.142902 Z M1164.90758,801.657902 L1164.90758,804.222902 C1164.33758,804.477902 1163.75258,804.627902 1163.31758,804.627902 C1161.78758,804.627902 1160.63258,803.457902 1160.63258,801.852902 C1160.63258,800.277902 1161.77258,799.092902 1163.28758,799.092902 C1164.20258,799.092902 1165.25258,799.542902 1165.97258,800.232902 L1167.74258,798.087902 C1166.63258,797.112902 1164.90758,796.497902 1163.30258,796.497902 C1159.91258,796.497902 1157.43758,798.777902 1157.43758,801.852902 C1157.43758,804.942902 1159.83758,807.237902 1163.09258,807.237902 C1164.59258,807.237902 1166.45258,806.667902 1167.59258,805.887902 L1167.59258,801.657902 L1164.90758,801.657902 Z M1182.73258,798.987902 L1182.73258,796.587902 L1174.13758,796.587902 L1174.13758,807.102902 L1182.88258,807.102902 L1182.88258,804.702902 L1177.25758,804.702902 L1177.25758,803.037902 L1182.22258,803.037902 L1182.22258,800.637902 L1177.25758,800.637902 L1177.25758,798.987902 L1182.73258,798.987902 Z M1199.35758,807.102902 L1199.35758,796.587902 L1196.50758,796.587902 L1196.50758,802.467902 L1192.05258,796.587902 L1189.38258,796.587902 L1189.38258,807.102902 L1192.24758,807.102902 L1192.24758,801.252902 L1196.70258,807.102902 L1199.35758,807.102902 Z M1212.29258,807.102902 L1215.83258,807.102902 L1213.70258,803.667902 C1214.84258,803.022902 1215.47258,801.882902 1215.47258,800.322902 C1215.47258,797.937902 1213.85258,796.587902 1211.03258,796.587902 L1206.12758,796.587902 L1206.12758,807.102902 L1209.24758,807.102902 L1209.24758,804.267902 L1210.89758,804.267902 L1212.29258,807.102902 Z M1209.24758,801.867902 L1209.24758,798.987902 L1211.03258,798.987902 C1211.96258,798.987902 1212.50258,799.497902 1212.50258,800.412902 C1212.50258,801.357902 1211.96258,801.867902 1211.03258,801.867902 L1209.24758,801.867902 Z M1230.59758,798.987902 L1225.12258,798.987902 L1225.12258,800.637902 L1230.08758,800.637902 L1230.08758,803.037902 L1225.12258,803.037902 L1225.12258,804.702902 L1230.74758,804.702902 L1230.74758,807.102902 L1222.00258,807.102902 L1222.00258,796.587902 L1230.59758,796.587902 L1230.59758,798.987902 Z" id="CLICKTOPICKAGENRE" fill="#FFFFFF" fill-rule="nonzero" transform="translate(1149.262584, 789.579238) rotate(48.000000) translate(-1149.262584, -789.579238) "></path>
            </g>
        </g>
    </g>
</svg>