<?xml version="1.0" encoding="UTF-8"?>
<svg width="893px" height="154px" viewBox="0 0 893 154" version="1.1" xmlns="http://www.w3.org/2000/svg" xmlns:xlink="http://www.w3.org/1999/xlink">
    <!-- Generator: Sketch 59.1 (86144) - https://sketch.com -->
    <title>hero-logo</title>
    <desc>Created with Sketch.</desc>
    <g id="Page-1" stroke="none" stroke-width="1" fill="none" fill-rule="evenodd">
        <g id="1-landing" transform="translate(-274.000000, -298.000000)" fill-rule="nonzero">
            <g id="hero-logo" transform="translate(274.000000, 298.000000)">
                <path d="M87.7296688,85.981802 L87.7296688,6.67549428 L62.7759492,6.67549428 L43.8648344,50.5711397 L24.9537196,6.67549428 L0,6.67549428 L0,85.981802 L20.4777161,85.981802 L20.4777161,39.0315628 L36.2556284,78.1756177 L51.4740403,78.1756177 L67.2519527,39.0315628 L67.3638528,85.981802 L87.7296688,85.981802 Z M163.187628,24.7767913 L163.187628,6.67549428 L99.0688777,6.67549428 L99.0688777,85.981802 L164.306629,85.981802 L164.306629,67.880505 L122.344096,67.880505 L122.344096,55.3227301 L159.383025,55.3227301 L159.383025,37.2214331 L122.344096,37.2214331 L122.344096,24.7767913 L163.187628,24.7767913 Z M236.631385,25.45559 L236.631385,0 L167.700931,6.67549428 L167.700931,25.45559 L190.416649,25.45559 L190.416649,85.981802 L213.803768,85.981802 L213.803768,25.45559 L236.631385,25.45559 Z M288.030826,85.981802 L314.439246,85.981802 L298.549434,60.0743206 C307.053841,55.209597 311.753644,46.6114809 311.753644,34.8456378 C311.753644,16.8574739 299.668435,6.67549428 278.631218,6.67549428 L242.03989,6.67549428 L242.03989,85.981802 L265.315108,85.981802 L265.315108,64.5996449 L277.624118,64.5996449 L288.030826,85.981802 Z M265.315108,46.4983478 L265.315108,24.7767913 L278.631218,24.7767913 C285.569024,24.7767913 289.597427,28.623317 289.597427,35.5244365 C289.597427,42.6518222 285.569024,46.4983478 278.631218,46.4983478 L265.315108,46.4983478 Z M359.572282,5.99669564 C334.954263,5.99669564 316.826448,22.9666616 316.826448,46.2720816 C316.826448,69.6906347 334.954263,87 359.572282,87 C384.190301,87 402.318115,69.5775016 402.318115,46.2720816 C402.318115,23.0797947 384.190301,5.99669564 359.572282,5.99669564 Z M359.907982,25.6818562 C370.20279,25.6818562 378.483397,34.3931054 378.483397,46.3852147 C378.483397,58.377324 370.20279,67.3148394 359.907982,67.3148394 C349.613174,67.3148394 340.661167,58.377324 340.661167,46.3852147 C340.661167,34.3931054 349.501274,25.6818562 359.907982,25.6818562 Z M483.594879,85.981802 L483.594879,6.67549428 L462.333862,6.67549428 L462.333862,51.0236721 L429.099536,6.67549428 L409.181321,6.67549428 L409.181321,85.981802 L430.554238,85.981802 L430.554238,41.8598904 L463.788564,85.981802 L483.594879,85.981802 Z M533.203918,5.99669564 C508.585899,5.99669564 490.458084,22.9666616 490.458084,46.2720816 C490.458084,69.6906347 508.585899,87 533.203918,87 C557.821937,87 575.949751,69.5775016 575.949751,46.2720816 C575.949751,23.0797947 557.821937,5.99669564 533.203918,5.99669564 Z M533.539618,25.6818562 C543.834426,25.6818562 552.115033,34.3931054 552.115033,46.3852147 C552.115033,58.377324 543.834426,67.3148394 533.539618,67.3148394 C523.24481,67.3148394 514.292803,58.377324 514.292803,46.3852147 C514.292803,34.3931054 523.13291,25.6818562 533.539618,25.6818562 Z M670.542626,85.981802 L670.542626,6.67549428 L645.588906,6.67549428 L626.677791,50.5711397 L607.766676,6.67549428 L582.812957,6.67549428 L582.812957,85.981802 L603.290673,85.981802 L603.290673,39.0315628 L619.068585,78.1756177 L634.286997,78.1756177 L650.06491,39.0315628 L650.17681,85.981802 L670.542626,85.981802 Z M734.698676,73.3108941 L739.28658,85.981802 L764.128399,85.981802 L731.789274,6.67549428 L707.842655,6.67549428 L674.384529,85.981802 L698.331147,85.981802 L703.030951,73.3108941 L734.698676,73.3108941 Z M728.544171,56.1146619 L709.521156,56.1146619 L719.144564,30.2071805 L728.544171,56.1146619 Z M822.353745,25.45559 L822.353745,1.31135795 L753.423291,6.67549428 L753.423291,25.45559 L776.139008,25.45559 L776.139008,85.981802 L799.526127,85.981802 L799.526127,25.45559 L822.353745,25.45559 Z M891.880999,24.7767913 L851.037467,24.7767913 L851.037467,37.2214331 L888.076396,37.2214331 L888.076396,55.3227301 L851.037467,55.3227301 L851.037467,67.880505 L893,67.880505 L893,85.981802 L827.762249,85.981802 L827.762249,6.67549428 L891.880999,6.67549428 L891.880999,24.7767913 Z" id="METRONOMATE" fill="#6DD6DA"></path>
                <path d="M18.2726502,153.629185 L28.1907656,153.629185 L22.223086,144.193991 C25.4170554,142.422318 27.1821437,139.290987 27.1821437,135.006009 C27.1821437,128.454936 22.6433451,124.746781 14.7424735,124.746781 L1,124.746781 L1,153.629185 L9.74138987,153.629185 L9.74138987,145.84206 L14.3642403,145.84206 L18.2726502,153.629185 Z M9.74138987,139.249785 L9.74138987,131.339056 L14.7424735,131.339056 C17.3480801,131.339056 18.861013,132.739914 18.861013,135.253219 C18.861013,137.848927 17.3480801,139.249785 14.7424735,139.249785 L9.74138987,139.249785 Z M77.1229368,131.339056 L77.1229368,124.746781 L53.0420887,124.746781 L53.0420887,153.629185 L77.5431959,153.629185 L77.5431959,147.03691 L61.7834786,147.03691 L61.7834786,142.463519 L75.6940558,142.463519 L75.6940558,135.871245 L61.7834786,135.871245 L61.7834786,131.339056 L77.1229368,131.339056 Z M123.15532,149.014592 L124.878382,153.629185 L134.208135,153.629185 L122.062646,124.746781 L113.069101,124.746781 L100.503353,153.629185 L109.496898,153.629185 L111.261987,149.014592 L123.15532,149.014592 Z M120.843895,142.751931 L113.69949,142.751931 L117.313718,133.316738 L120.843895,142.751931 Z M166.666148,146.460086 L166.666148,124.746781 L157.924759,124.746781 L157.924759,153.629185 L179.021767,153.629185 L179.021767,146.460086 L166.666148,146.460086 Z M254.234142,149.014592 L255.957205,153.629185 L265.286957,153.629185 L253.141468,124.746781 L244.147923,124.746781 L231.582175,153.629185 L240.57572,153.629185 L242.340809,149.014592 L254.234142,149.014592 Z M251.922717,142.751931 L244.778312,142.751931 L248.39254,133.316738 L251.922717,142.751931 Z M301.065018,124.375966 C293.710483,124.375966 288.877503,127.919313 288.877503,133.481545 C288.877503,143.658369 304.258987,140.897854 304.258987,145.265236 C304.258987,146.583691 303.082261,147.201717 301.233121,147.201717 C298.207256,147.201717 293.290224,145.306438 290.264358,142.793133 L286.986337,149.303004 C290.684617,152.145923 296.147986,153.876395 301.149069,153.876395 C307.747138,153.876395 313.294558,150.951073 313.294558,144.812017 C313.294558,134.387983 297.913074,136.901288 297.913074,132.657511 C297.913074,131.586266 298.87967,131.091845 300.350577,131.091845 C302.830106,131.091845 307.116749,132.616309 310.142615,134.305579 L313.37861,127.713305 C310.184641,125.694421 305.56179,124.375966 301.065018,124.375966 Z M350.165293,124.375966 C342.810758,124.375966 337.977778,127.919313 337.977778,133.481545 C337.977778,143.658369 353.359262,140.897854 353.359262,145.265236 C353.359262,146.583691 352.182536,147.201717 350.333396,147.201717 C347.30753,147.201717 342.390499,145.306438 339.364633,142.793133 L336.086612,149.303004 C339.784892,152.145923 345.248261,153.876395 350.249344,153.876395 C356.847413,153.876395 362.394833,150.951073 362.394833,144.812017 C362.394833,134.387983 347.013349,136.901288 347.013349,132.657511 C347.013349,131.586266 347.979945,131.091845 349.450852,131.091845 C351.930381,131.091845 356.217024,132.616309 359.24289,134.305579 L362.478885,127.713305 C359.284916,125.694421 354.662065,124.375966 350.165293,124.375966 Z M417.939081,124.746781 L417.939081,153.629185 L430.546855,153.629185 C440.254841,153.629185 446.684806,147.860944 446.684806,139.167382 C446.684806,130.47382 440.380919,124.746781 430.841037,124.746781 L417.939081,124.746781 Z M426.680471,131.503863 L430.672933,131.503863 C434.875524,131.503863 437.775312,134.593991 437.775312,139.249785 C437.775312,143.864378 435.085654,146.913305 431.093192,146.913305 L426.680471,146.913305 L426.680471,131.503863 Z M488.808779,153.629185 L498.726894,153.629185 L492.759215,144.193991 C495.953184,142.422318 497.718272,139.290987 497.718272,135.006009 C497.718272,128.454936 493.179474,124.746781 485.278602,124.746781 L471.536129,124.746781 L471.536129,153.629185 L480.277519,153.629185 L480.277519,145.84206 L484.900369,145.84206 L488.808779,153.629185 Z M480.277519,139.249785 L480.277519,131.339056 L485.278602,131.339056 C487.884209,131.339056 489.397142,132.739914 489.397142,135.253219 C489.397142,137.848927 487.884209,139.249785 485.278602,139.249785 L480.277519,139.249785 Z M550.811009,124.746781 L542.069619,124.746781 L542.069619,141.433476 C542.069619,144.812017 540.010349,146.830901 537.110561,146.830901 C534.168748,146.830901 531.857322,144.770815 531.857322,141.433476 L531.857322,124.746781 L523.115932,124.746781 L523.115932,141.433476 C523.115932,149.096996 528.621327,154 537.068536,154 C545.473718,154 550.811009,149.096996 550.811009,141.433476 L550.811009,124.746781 Z M609.829399,153.629185 L609.829399,124.746781 L600.457621,124.746781 L593.355241,140.733047 L586.252862,124.746781 L576.881084,124.746781 L576.881084,153.629185 L584.571826,153.629185 L584.571826,136.530472 L590.497479,150.786266 L596.213004,150.786266 L602.138657,136.530472 L602.180683,153.629185 L609.829399,153.629185 Z M667.138736,124.746781 L667.138736,153.629185 L682.226038,153.629185 C689.286392,153.629185 693.82519,150.497854 693.82519,145.553648 C693.82519,141.886695 691.513765,139.002575 687.899537,138.260944 C690.967428,137.395708 692.90062,134.964807 692.90062,132.039485 C692.90062,127.5897 688.487899,124.746781 681.59565,124.746781 L667.138736,124.746781 Z M675.8381,131.174249 L681.133365,131.174249 C682.856427,131.174249 683.949101,132.080687 683.949101,133.563948 C683.949101,135.088412 682.856427,136.077253 681.133365,136.077253 L675.8381,136.077253 L675.8381,131.174249 Z M675.8381,141.927897 L681.133365,141.927897 C683.360738,141.927897 684.747593,142.916738 684.747593,144.482403 C684.747593,146.171674 683.360738,147.242918 681.133365,147.242918 L675.8381,147.242918 L675.8381,141.927897 Z M743.051543,131.339056 L743.051543,124.746781 L718.970695,124.746781 L718.970695,153.629185 L743.471802,153.629185 L743.471802,147.03691 L727.712085,147.03691 L727.712085,142.463519 L741.622662,142.463519 L741.622662,135.871245 L727.712085,135.871245 L727.712085,131.339056 L743.051543,131.339056 Z M789.083926,149.014592 L790.806989,153.629185 L800.136741,153.629185 L787.991252,124.746781 L778.997707,124.746781 L766.431959,153.629185 L775.425505,153.629185 L777.190593,149.014592 L789.083926,149.014592 Z M786.772501,142.751931 L779.628096,142.751931 L783.242324,133.316738 L786.772501,142.751931 Z M844.277958,131.586266 L844.277958,122 L818.389996,124.746781 L818.389996,131.586266 L826.921256,131.586266 L826.921256,153.629185 L835.704672,153.629185 L835.704672,131.586266 L844.277958,131.586266 Z M880.686408,124.375966 C885.18318,124.375966 889.806031,125.694421 893,127.713305 L889.764005,134.305579 C886.738139,132.616309 882.451496,131.091845 879.971967,131.091845 C878.50106,131.091845 877.534464,131.586266 877.534464,132.657511 C877.534464,136.901288 892.915948,134.387983 892.915948,144.812017 C892.915948,150.951073 887.368528,153.876395 880.770459,153.876395 C875.769376,153.876395 870.306007,152.145923 866.607727,149.303004 L869.885748,142.793133 C872.911614,145.306438 877.828645,147.201717 880.854511,147.201717 C882.703651,147.201717 883.880377,146.583691 883.880377,145.265236 C883.880377,140.897854 868.498893,143.658369 868.498893,133.481545 C868.498893,127.919313 873.331873,124.375966 880.686408,124.375966 Z" id="REALASSDRUMBEATS" fill="#FFFFFF"></path>
            </g>
        </g>
    </g>
</svg>