<?xml version="1.0" encoding="UTF-8"?>
<svg width="38px" height="38px" viewBox="0 0 38 38" version="1.1" xmlns="http://www.w3.org/2000/svg" xmlns:xlink="http://www.w3.org/1999/xlink">
    <title>instagra-icon</title>
    <g id="Page-1" stroke="none" stroke-width="1" fill="none" fill-rule="evenodd">
        <g id="1-landing" transform="translate(-1333.000000, -44.000000)" fill="#6DD6DA" stroke="#6DD6DA" stroke-width="0.5">
            <g id="instagra-icon" transform="translate(1334.000000, 45.000000)">
                <g id="Instagram/White">
                    <path d="M19.9729952,0.00163937537 C23.1080483,0.00795855469 23.7968535,0.0341976017 25.421377,0.108319887 C27.3372671,0.195704597 28.6457513,0.500014886 29.790684,0.945012415 C30.9743431,1.40494323 31.9781598,2.02042311 32.9789041,3.02109594 C33.9795769,4.02184022 34.5950568,5.0256569 35.055059,6.20931603 C35.4999851,7.35424866 35.8042954,8.66273289 35.8916801,10.578623 C35.9747869,12.4000584 35.9976989,13.0451869 35.9998303,17.2809317 L35.9998303,18.7191293 C35.9976989,22.9548131 35.9747869,23.5999416 35.8916801,25.421377 C35.8042954,27.3372671 35.4999851,28.6457513 35.055059,29.790684 C34.5950568,30.9743431 33.9795769,31.9781598 32.9789041,32.9789041 C31.9781598,33.9795769 30.9743431,34.5950568 29.790684,35.055059 C28.6457513,35.4999851 27.3372671,35.8042954 25.421377,35.8916801 C23.5999416,35.9747869 22.9548131,35.9976989 18.7191293,35.9998303 L17.2809317,35.9998303 C13.0451869,35.9976989 12.4000584,35.9747869 10.578623,35.8916801 C8.66273289,35.8042954 7.35424866,35.4999851 6.20931603,35.055059 C5.0256569,34.5950568 4.02184022,33.9795769 3.02109594,32.9789041 C2.02042311,31.9781598 1.40494323,30.9743431 0.945012415,29.790684 C0.500014886,28.6457513 0.195704597,27.3372671 0.108319887,25.421377 C0.0341976017,23.7968535 0.00795855469,23.1080483 0.00163937537,19.9729952 L0.00163937537,16.0270481 C0.00795855469,12.8919517 0.0341976017,12.2031465 0.108319887,10.578623 C0.195704597,8.66273289 0.500014886,7.35424866 0.945012415,6.20931603 C1.40494323,5.0256569 2.02042311,4.02184022 3.02109594,3.02109594 C4.02184022,2.02042311 5.0256569,1.40494323 6.20931603,0.945012415 C7.35424866,0.500014886 8.66273289,0.195704597 10.578623,0.108319887 C12.2031465,0.0341976017 12.8919517,0.00795855469 16.0270481,0.00163937537 Z M19.0618545,3.24360534 L16.9382013,3.24360534 C13.0956308,3.24656215 12.4746385,3.26843713 10.7264554,3.34819913 C8.97147314,3.42822438 8.01838675,3.72145975 7.38411523,3.96796608 C6.54392159,4.29449767 5.94430386,4.68454929 5.3144623,5.3144623 C4.68454929,5.94430386 4.29449767,6.54392159 3.96796608,7.38411523 C3.72145975,8.01838675 3.42822438,8.97147314 3.34819913,10.7264554 C3.26843713,12.4746385 3.24656215,13.0956308 3.24360534,16.9382013 L3.24360534,19.0618545 C3.24656215,22.9043692 3.26843713,23.5253615 3.34819913,25.2735446 C3.42822438,27.0285269 3.72145975,27.9816132 3.96796608,28.6158848 C4.29449767,29.4560784 4.68462074,30.0556961 5.3144623,30.6855377 C5.94430386,31.3154507 6.54392159,31.7055023 7.38411523,32.0320339 C8.01838675,32.2785403 8.97147314,32.5717756 10.7264554,32.6518009 C12.6242684,32.7383996 13.1934479,32.7567626 18.0000357,32.7567626 L18.3707958,32.7567235 C22.8374327,32.7557488 23.4257436,32.7361207 25.2735446,32.6518009 C27.0285269,32.5717756 27.9816132,32.2785403 28.6158848,32.0320339 C29.4560784,31.7055023 30.0556961,31.3154507 30.6855377,30.6855377 C31.3154507,30.0556961 31.7055023,29.4560784 32.0320339,28.6158848 C32.2785403,27.9816132 32.5717756,27.0285269 32.6518009,25.2735446 C32.7383996,23.3755173 32.7567626,22.8061948 32.7567626,18.0000357 L32.7567235,17.6292975 C32.7557488,13.1629207 32.7361207,12.5745346 32.6518009,10.7264554 C32.5717756,8.97147314 32.2785403,8.01838675 32.0320339,7.38411523 C31.7055023,6.54392159 31.3154507,5.94430386 30.6855377,5.3144623 C30.0556961,4.68454929 29.4560784,4.29449767 28.6158848,3.96796608 C27.9816132,3.72145975 27.0285269,3.42822438 25.2735446,3.34819913 C23.5253615,3.26843713 22.9043692,3.24656215 19.0618545,3.24360534 Z M18.0000357,8.75676255 C23.1049319,8.75676255 27.2432374,12.8950681 27.2432374,18.0000357 C27.2432374,23.1049319 23.1049319,27.2432374 18.0000357,27.2432374 C12.8950681,27.2432374 8.75676255,23.1049319 8.75676255,18.0000357 C8.75676255,12.8950681 12.8950681,8.75676255 18.0000357,8.75676255 Z M18.0000357,12 C14.686276,12 12,14.686276 12,18.0000357 C12,21.313724 14.686276,24 18.0000357,24 C21.313724,24 24,21.313724 24,18.0000357 C24,14.686276 21.313724,12 18.0000357,12 Z M27.6084241,6.23153733 C28.8013719,6.23153733 29.7684627,7.19862814 29.7684627,8.39157591 C29.7684627,9.58452369 28.8013719,10.551543 27.6084241,10.551543 C26.4155478,10.551543 25.448457,9.58452369 25.448457,8.39157591 C25.448457,7.19862814 26.4155478,6.23153733 27.6084241,6.23153733 Z" id="Instagram"></path>
                </g>
            </g>
        </g>
    </g>
</svg>